<svg xmlns="http://www.w3.org/2000/svg" width="17" height="17" fill="none"><path stroke="#004BFE" stroke-linecap="round" stroke-linejoin="round" d="M10.75 8.462a2.25 2.25 0 1 1-4.5 0 2.25 2.25 0 0 1 4.5 0Z"/><path stroke="#004BFE" stroke-linecap="round" stroke-linejoin="round" d="M13.882 10.644a1.2 1.2 0 0 0 .24 1.324l.044.044a1.455 1.455 0 1 1-2.058 2.058l-.044-.044a1.21 1.21 0 0 0-2.05.858v.124a1.455 1.455 0 0 1-2.91 0v-.066a1.2 1.2 0 0 0-.785-1.1 1.2 1.2 0 0 0-1.324.24l-.044.044a1.455 1.455 0 0 1-2.058-2.058l.044-.044a1.21 1.21 0 0 0-.858-2.051h-.124a1.455 1.455 0 1 1 0-2.91h.065a1.2 1.2 0 0 0 1.1-.784 1.2 1.2 0 0 0-.24-1.324l-.044-.044a1.455 1.455 0 1 1 2.057-2.056l.044.044a1.2 1.2 0 0 0 1.324.24h.058a1.2 1.2 0 0 0 .727-1.1v-.122a1.455 1.455 0 0 1 2.91 0v.065a1.21 1.21 0 0 0 2.05.858l.044-.044a1.454 1.454 0 1 1 2.058 2.058l-.044.044a1.2 1.2 0 0 0-.24 1.324v.058a1.2 1.2 0 0 0 1.1.727h.124a1.455 1.455 0 0 1 0 2.909h-.068a1.2 1.2 0 0 0-1.1.727h.002Z"/></svg>