<svg width="21" height="16" viewBox="0 0 21 16" fill="none" xmlns="http://www.w3.org/2000/svg">
<mask id="path-1-inside-1_4100_120" fill="white">
<path fill-rule="evenodd" clip-rule="evenodd" d="M14.6035 16H5.60449L5.39844 15.9951C3.28505 15.8879 1.60449 14.14 1.60449 12V9.6001H1.60547C1.98307 9.60005 2.33029 9.46995 2.60449 9.2523V12C2.60449 13.6569 3.94764 15 5.60449 15H14.6035C16.2604 15 17.6035 13.6569 17.6035 12V9.25124C17.8778 9.46947 18.2254 9.59999 18.6035 9.6001V12L18.5986 12.2061C18.4949 14.2512 16.8547 15.8913 14.8096 15.9951L14.6035 16ZM18.6035 7.3999V8.6001C18.2664 8.59984 17.9985 8.32764 17.9985 7.99951C17.9987 7.67156 18.2665 7.40016 18.6035 7.3999ZM18.6035 6.3999V4C18.6035 1.85997 16.923 0.112117 14.8096 0.00488281L14.6035 0H5.60449C3.39535 0 1.60449 1.79086 1.60449 4V6.3999L1.60547 6.3999C1.98307 6.39995 2.33029 6.52995 2.60449 6.74747V4C2.60449 2.34315 3.94764 1 5.60449 1H14.6035C16.2604 1 17.6035 2.34315 17.6035 4V6.74853C17.8778 6.53042 18.2254 6.40001 18.6035 6.3999ZM1.60547 8.6001L1.60449 8.6001V7.3999L1.60547 7.3999C1.9426 7.40002 2.21072 7.67147 2.21094 7.99951C2.21094 8.32773 1.94274 8.59998 1.60547 8.6001Z"/>
</mask>
<path d="M5.60449 16L5.5808 16.9997L5.59265 17H5.60449V16ZM14.6035 16V17H14.6154L14.6272 16.9997L14.6035 16ZM5.39844 15.9951L5.34776 16.9938L5.36125 16.9945L5.37475 16.9948L5.39844 15.9951ZM1.60449 9.6001V8.6001H0.604492V9.6001H1.60449ZM1.60547 9.6001V10.6001H1.6056L1.60547 9.6001ZM2.60449 9.2523H3.60449V7.18185L1.9828 8.46904L2.60449 9.2523ZM14.6035 15V16H14.6035L14.6035 15ZM17.6035 9.25124L18.2261 8.46869L16.6035 7.17778V9.25124H17.6035ZM18.6035 9.6001H19.6035V8.6004L18.6038 8.6001L18.6035 9.6001ZM18.6035 12L19.6032 12.0237L19.6035 12.0118V12H18.6035ZM18.5986 12.2061L19.5973 12.2567L19.598 12.2432L19.5984 12.2297L18.5986 12.2061ZM14.8096 15.9951L14.8333 16.9948L14.8468 16.9945L14.8602 16.9938L14.8096 15.9951ZM18.6035 8.6001L18.6027 9.6001L19.6035 9.60088V8.6001H18.6035ZM18.6035 7.3999H19.6035V6.39913L18.6027 6.3999L18.6035 7.3999ZM17.9985 7.99951L16.9985 7.99886V7.99951H17.9985ZM18.6035 6.3999L18.6038 7.3999L19.6035 7.39961V6.3999H18.6035ZM14.8096 0.00488281L14.8602 -0.993832L14.8468 -0.994517L14.8333 -0.994837L14.8096 0.00488281ZM14.6035 0L14.6272 -0.999719L14.6154 -1H14.6035V0ZM1.60449 4L0.604492 4V4H1.60449ZM1.60449 6.3999H0.604492V7.40039L1.60498 7.3999L1.60449 6.3999ZM1.60547 6.3999L1.6056 5.3999H1.60498L1.60547 6.3999ZM2.60449 6.74747L1.98301 7.5309L3.60449 8.8172V6.74747H2.60449ZM2.60449 4L1.60449 4V4H2.60449ZM14.6035 1L14.6035 0H14.6035V1ZM17.6035 6.74853H16.6035V8.82126L18.2259 7.53125L17.6035 6.74853ZM1.60449 8.6001H0.604492V9.59912L1.60352 9.6001L1.60449 8.6001ZM1.60547 8.6001L1.60449 9.6001H1.60581L1.60547 8.6001ZM1.60449 7.3999L1.60352 6.3999L0.604492 6.40088V7.3999H1.60449ZM1.60547 7.3999L1.60581 6.3999L1.60449 6.3999L1.60547 7.3999ZM2.21094 7.99951H3.21094L3.21094 7.99886L2.21094 7.99951ZM5.60449 16V17H14.6035V16V15H5.60449V16ZM5.39844 15.9951L5.37475 16.9948L5.5808 16.9997L5.60449 16L5.62818 15.0003L5.42213 14.9954L5.39844 15.9951ZM1.60449 12H0.604492C0.604492 14.6752 2.70508 16.8597 5.34776 16.9938L5.39844 15.9951L5.44911 14.9964C3.86502 14.916 2.60449 13.6048 2.60449 12H1.60449ZM1.60449 9.6001H0.604492V12H1.60449H2.60449V9.6001H1.60449ZM1.60547 9.6001V8.6001H1.60449V9.6001V10.6001H1.60547V9.6001ZM2.60449 9.2523L1.9828 8.46904C1.87915 8.55131 1.74939 8.60008 1.60534 8.6001L1.60547 9.6001L1.6056 10.6001C2.21675 10.6 2.78143 10.3886 3.22619 10.0356L2.60449 9.2523ZM2.60449 12H3.60449V9.2523H2.60449H1.60449V12H2.60449ZM5.60449 15V14C4.49992 14 3.60449 13.1046 3.60449 12H2.60449H1.60449C1.60449 14.2091 3.39535 16 5.60449 16V15ZM14.6035 15V14H5.60449V15V16H14.6035V15ZM17.6035 12H16.6035C16.6035 13.1046 15.7081 14 14.6035 14L14.6035 15L14.6035 16C16.8126 16 18.6035 14.2091 18.6035 12H17.6035ZM17.6035 9.25124H16.6035V12H17.6035H18.6035V9.25124H17.6035ZM18.6035 9.6001L18.6038 8.6001C18.4596 8.60005 18.3297 8.55115 18.2261 8.46869L17.6035 9.25124L16.9809 10.0338C17.4259 10.3878 17.9912 10.5999 18.6032 10.6001L18.6035 9.6001ZM18.6035 12H19.6035V9.6001H18.6035H17.6035V12H18.6035ZM18.5986 12.2061L19.5984 12.2297L19.6032 12.0237L18.6035 12L17.6038 11.9763L17.5989 12.1824L18.5986 12.2061ZM14.8096 15.9951L14.8602 16.9938C17.4178 16.8641 19.4676 14.8143 19.5973 12.2567L18.5986 12.2061L17.5999 12.1554C17.5222 13.6881 16.2916 14.9186 14.7589 14.9964L14.8096 15.9951ZM14.6035 16L14.6272 16.9997L14.8333 16.9948L14.8096 15.9951L14.7859 14.9954L14.5798 15.0003L14.6035 16ZM18.6035 8.6001H19.6035V7.3999H18.6035H17.6035V8.6001H18.6035ZM17.9985 7.99951H16.9985C16.9985 8.88039 17.7144 9.59941 18.6027 9.6001L18.6035 8.6001L18.6043 7.6001C18.8184 7.60026 18.9985 7.77488 18.9985 7.99951H17.9985ZM18.6035 7.3999L18.6027 6.3999C17.716 6.40059 16.9991 7.1172 16.9985 7.99886L17.9985 7.99951L18.9985 8.00016C18.9984 8.22593 18.817 8.39974 18.6043 8.3999L18.6035 7.3999ZM18.6035 6.3999H19.6035V4H18.6035H17.6035V6.3999H18.6035ZM18.6035 4H19.6035C19.6035 1.32476 17.5029 -0.859742 14.8602 -0.993832L14.8096 0.00488281L14.7589 1.0036C16.343 1.08398 17.6035 2.39517 17.6035 4H18.6035ZM14.8096 0.00488281L14.8333 -0.994837L14.6272 -0.999719L14.6035 0L14.5798 0.999719L14.7859 1.0046L14.8096 0.00488281ZM14.6035 0V-1H5.60449V0V1H14.6035V0ZM5.60449 0V-1C2.84307 -1 0.604494 1.23858 0.604492 4L1.60449 4L2.60449 4C2.60449 2.34315 3.94764 1 5.60449 1V0ZM1.60449 4H0.604492V6.3999H1.60449H2.60449V4H1.60449ZM1.60449 6.3999L1.60498 7.3999L1.60596 7.3999L1.60547 6.3999L1.60498 5.3999L1.604 5.3999L1.60449 6.3999ZM1.60547 6.3999L1.60534 7.3999C1.7496 7.39992 1.87942 7.44872 1.98301 7.5309L2.60449 6.74747L3.22598 5.96404C2.78116 5.61118 2.21654 5.39998 1.6056 5.3999L1.60547 6.3999ZM2.60449 6.74747H3.60449V4H2.60449H1.60449V6.74747H2.60449ZM2.60449 4L3.60449 4C3.60449 2.89543 4.49992 2 5.60449 2V1V0C3.39535 0 1.60449 1.79086 1.60449 4L2.60449 4ZM5.60449 1V2H14.6035V1V0H5.60449V1ZM14.6035 1L14.6035 2C15.7081 2 16.6035 2.89543 16.6035 4H17.6035H18.6035C18.6035 1.79086 16.8126 3.4968e-06 14.6035 0L14.6035 1ZM17.6035 4H16.6035V6.74853H17.6035H18.6035V4H17.6035ZM17.6035 6.74853L18.2259 7.53125C18.3295 7.44889 18.4594 7.39995 18.6038 7.3999L18.6035 6.3999L18.6032 5.3999C17.9914 5.40008 17.4262 5.61196 16.9811 5.96581L17.6035 6.74853ZM1.60449 8.6001L1.60352 9.6001L1.60449 9.6001L1.60547 8.6001L1.60645 7.6001L1.60547 7.6001L1.60449 8.6001ZM1.60449 7.3999H0.604492V8.6001H1.60449H2.60449V7.3999H1.60449ZM1.60547 7.3999L1.60449 6.3999L1.60352 6.3999L1.60449 7.3999L1.60547 8.3999L1.60645 8.3999L1.60547 7.3999ZM2.21094 7.99951L3.21094 7.99886C3.21036 7.1165 2.49241 6.4002 1.60581 6.3999L1.60547 7.3999L1.60513 8.3999C1.3928 8.39983 1.21108 8.22645 1.21094 8.00016L2.21094 7.99951ZM1.60547 8.6001L1.60581 9.6001C2.49402 9.5998 3.21094 8.88108 3.21094 7.99951H2.21094H1.21094C1.21094 7.77437 1.39145 7.60017 1.60513 7.6001L1.60547 8.6001Z" fill="#004CFF" mask="url(#path-1-inside-1_4100_120)"/>
<path d="M3.604 8H16.604" stroke="#004CFF" stroke-dasharray="1"/>
</svg>
